<svg width="8" height="10" viewBox="0 0 8 10" xmlns="http://www.w3.org/2000/svg"><path d="M4,21 C4.66666667,21 8,17.6616102 8,14.9298246 C8,12.7594424 6.209139,11 4,11 C1.790861,11 9.96731844e-17,12.7594424 0,14.9298246 C0,17.6616102 3.33333333,21 4,21 Z M4,16.6140351 C4.94677386,16.6140351 5.71428571,15.8599884 5.71428571,14.9298246 C5.71428571,13.9996608 4.94677386,13.245614 4,13.245614 C3.05322614,13.245614 2.28571429,13.9996608 2.28571429,14.9298246 C2.28571429,15.8599884 3.05322614,16.6140351 4,16.6140351 Z" transform="translate(-1182.000000, -885.000000) translate(1162.000000, 636.000000) translate(20.000000, 238.000000)" fill="#CCC" fill-rule="evenodd"/></svg>